<svg xmlns="http://www.w3.org/2000/svg" width="187" height="52" viewBox="0 0 187 52" fill="none"><path d="M63 34V14H77.8055V17.5294H67.6435V22.2059H75.7866V25.6765H67.6435V30.4706H77.8055V34H63Z" fill="white"></path><path d="M94.6539 34H81.6317V14H86.2753V30.4118H94.6539V34Z" fill="white"></path><path d="M97.5032 34V14H112.309V17.5294H102.147V22.2059H110.29V25.6765H102.147V30.4706H112.309V34H97.5032Z" fill="white"></path><path d="M128.518 14H133.397L128.08 34H119.5L114.183 14H119.062L123.033 30.4706H124.547L128.518 14Z" fill="white"></path><path d="M133.572 34L138.72 14H147.536L152.684 34H148.041L147.132 30.3824H139.124L138.215 34H133.572ZM142.32 17.3529L139.999 26.8529H146.257L143.936 17.3529H142.32Z" fill="white"></path><path d="M152.43 17.5882V14H169.255V17.5882H163.198V34H158.554V17.5882H152.43Z" fill="white"></path><path d="M172.195 34V14H187V17.5294H176.838V22.2059H184.981V25.6765H176.838V30.4706H187V34H172.195Z" fill="white"></path><path d="M70.154 51.7055C69.0476 51.9018 68.054 52 67.1732 52C66.2923 52 65.578 51.8971 65.0302 51.6914C64.4931 51.4764 64.0742 51.1491 63.7734 50.7097C63.4834 50.2609 63.2793 49.7513 63.1611 49.1809C63.0537 48.6012 63 47.8813 63 47.021C63 46.1608 63.0537 45.4409 63.1611 44.8612C63.2793 44.2721 63.4834 43.7532 63.7734 43.3043C64.0742 42.8555 64.4931 42.5283 65.0302 42.3226C65.5673 42.1169 66.2655 42.014 67.1248 42.014C67.9842 42.014 68.9939 42.1169 70.154 42.3226L70.1057 43.2342C69.0208 43.0659 68.054 42.9818 67.2054 42.9818C66.0238 42.9818 65.2397 43.2903 64.853 43.9074C64.477 44.5152 64.289 45.5577 64.289 47.0351C64.289 47.7737 64.3212 48.3675 64.3857 48.8163C64.4609 49.2651 64.6005 49.6718 64.8046 50.0365C65.0087 50.3918 65.3041 50.6489 65.6908 50.8079C66.0883 50.9575 66.6629 51.0323 67.4149 51.0323C68.1775 51.0323 69.0745 50.9481 70.1057 50.7798L70.154 51.7055Z" fill="#707070"></path><path d="M74.2821 47.0491C74.2821 48.4703 74.4969 49.4942 74.9266 50.1206C75.3563 50.7377 76.1834 51.0463 77.408 51.0463C78.6433 51.0463 79.4704 50.7424 79.8893 50.1346C80.319 49.5269 80.5338 48.5077 80.5338 47.0771C80.5338 45.6466 80.3136 44.604 79.8732 43.9495C79.4328 43.295 78.6057 42.9677 77.3918 42.9677C76.1888 42.9677 75.367 43.295 74.9266 43.9495C74.4969 44.5947 74.2821 45.6279 74.2821 47.0491ZM81.8228 47.0771C81.8228 48.8069 81.5059 50.0598 80.8722 50.8359C80.2384 51.612 79.0837 52 77.408 52C75.743 52 74.5936 51.6026 73.9599 50.8079C73.3261 50.0131 73.0092 48.7648 73.0092 47.0631C73.0092 45.352 73.3315 44.0851 73.976 43.2623C74.6205 42.4301 75.7645 42.014 77.408 42.014C79.0514 42.014 80.1954 42.4254 80.84 43.2482C81.4952 44.0711 81.8228 45.3474 81.8228 47.0771Z" fill="#707070"></path><path d="M85.5474 51.8597V42.1543H87.8676L92.1374 50.906H92.4758V42.1543H93.7003V51.8597H91.4285L87.0942 43.108H86.788V51.8597H85.5474Z" fill="#707070"></path><path d="M100.964 42.9537C99.3523 42.9537 98.5467 43.482 98.5467 44.5386C98.5467 45.1276 98.7293 45.5344 99.0945 45.7588C99.4705 45.9738 100.222 46.1935 101.35 46.418C102.489 46.633 103.295 46.9182 103.767 47.2735C104.24 47.6194 104.476 48.1945 104.476 48.9986C104.476 50.9902 103.289 51.986 100.915 51.986C100.131 51.986 99.1483 51.9065 97.9667 51.7475L97.3866 51.6774L97.5155 50.7798C98.9764 50.9481 100.088 51.0323 100.851 51.0323C102.441 51.0323 103.235 50.3824 103.235 49.0827C103.235 48.5591 103.058 48.1851 102.704 47.9607C102.36 47.727 101.71 47.5306 100.754 47.3717C99.4974 47.1379 98.6058 46.8387 98.0795 46.4741C97.5531 46.1 97.2899 45.4783 97.2899 44.6087C97.2899 42.8696 98.4876 42 100.883 42C101.667 42 102.607 42.0701 103.703 42.2104L104.251 42.2805L104.138 43.1921C102.645 43.0332 101.587 42.9537 100.964 42.9537Z" fill="#707070"></path><path d="M106.909 43.122V42.1543H114.965V43.122H111.566V51.8597H110.341V43.122H106.909Z" fill="#707070"></path><path d="M119.241 48.1431V51.8597H118V42.1543H122.125C123.307 42.1543 124.193 42.3927 124.784 42.8696C125.385 43.3464 125.686 44.0898 125.686 45.0996C125.686 46.5956 125.004 47.5353 123.64 47.9187L125.783 51.8597H124.413L122.399 48.1431H119.241ZM122.141 47.1893C123.656 47.1893 124.413 46.5115 124.413 45.1557C124.413 43.7906 123.651 43.108 122.125 43.108H119.241V47.1893H122.141Z" fill="#707070"></path><path d="M130.539 48.9425C130.539 50.345 131.41 51.0463 133.15 51.0463C134.052 51.0463 134.729 50.8827 135.18 50.5554C135.642 50.2188 135.873 49.6812 135.873 48.9425V42.1543H137.097V48.9144C137.097 49.9991 136.764 50.7845 136.098 51.2707C135.443 51.7569 134.471 52 133.182 52C131.893 52 130.921 51.7569 130.266 51.2707C129.621 50.7845 129.299 49.9991 129.299 48.9144V42.1543H130.539V48.9425Z" fill="#707070"></path><path d="M147.934 51.7055C146.828 51.9018 145.834 52 144.953 52C144.072 52 143.358 51.8971 142.81 51.6914C142.273 51.4764 141.854 51.1491 141.553 50.7097C141.263 50.2609 141.059 49.7513 140.941 49.1809C140.834 48.6012 140.78 47.8813 140.78 47.021C140.78 46.1608 140.834 45.4409 140.941 44.8612C141.059 44.2721 141.263 43.7532 141.553 43.3043C141.854 42.8555 142.273 42.5283 142.81 42.3226C143.347 42.1169 144.045 42.014 144.905 42.014C145.764 42.014 146.774 42.1169 147.934 42.3226L147.886 43.2342C146.801 43.0659 145.834 42.9818 144.985 42.9818C143.804 42.9818 143.02 43.2903 142.633 43.9074C142.257 44.5152 142.069 45.5577 142.069 47.0351C142.069 47.7737 142.101 48.3675 142.166 48.8163C142.241 49.2651 142.38 49.6718 142.585 50.0365C142.789 50.3918 143.084 50.6489 143.471 50.8079C143.868 50.9575 144.443 51.0323 145.195 51.0323C145.957 51.0323 146.854 50.9481 147.886 50.7798L147.934 51.7055Z" fill="#707070"></path><path d="M150.253 43.122V42.1543H158.31V43.122H154.91V51.8597H153.685V43.122H150.253Z" fill="#707070"></path><path d="M161.345 51.8597V42.1543H162.585V51.8597H161.345Z" fill="#707070"></path><path d="M167.582 47.0491C167.582 48.4703 167.797 49.4942 168.226 50.1206C168.656 50.7377 169.483 51.0463 170.708 51.0463C171.943 51.0463 172.77 50.7424 173.189 50.1346C173.619 49.5269 173.833 48.5077 173.833 47.0771C173.833 45.6466 173.613 44.604 173.173 43.9495C172.732 43.295 171.905 42.9677 170.692 42.9677C169.488 42.9677 168.667 43.295 168.226 43.9495C167.797 44.5947 167.582 45.6279 167.582 47.0491ZM175.122 47.0771C175.122 48.8069 174.806 50.0598 174.172 50.8359C173.538 51.612 172.383 52 170.708 52C169.043 52 167.893 51.6026 167.26 50.8079C166.626 50.0131 166.309 48.7648 166.309 47.0631C166.309 45.352 166.631 44.0851 167.276 43.2623C167.92 42.4301 169.064 42.014 170.708 42.014C172.351 42.014 173.495 42.4254 174.14 43.2482C174.795 44.0711 175.122 45.3474 175.122 47.0771Z" fill="#707070"></path><path d="M178.847 51.8597V42.1543H181.167L185.437 50.906H185.775V42.1543H187V51.8597H184.728L180.394 43.108H180.088V51.8597H178.847Z" fill="#707070"></path><path fill-rule="evenodd" clip-rule="evenodd" d="M46.0411 18.6644V18.6441C47.3654 19.7085 47.3654 19.7153 46.0411 18.6644ZM1.9589 36.0881V36.0678C0.641471 37.1254 0.641471 37.1322 1.9589 36.0881ZM7.10447 52L10.0221 49.7627V52H7.10447ZM1.9589 51.2475C1.42779 51.6678 1.1105 51.9186 1.00704 52H1.94511L1.9589 51.2475C3.29703 50.1831 5.98017 48.0407 10.0221 44.8136V42.1831C5.86291 45.3695 2.64866 47.8373 0.379365 49.5797V51.9119L0.434545 51.9932H1.00014C1.09671 51.9119 1.414 51.6542 1.9589 51.2203V51.2475ZM1.9589 43.6678C0.641471 44.7119 0.641471 44.7119 1.9589 43.6475V43.6678ZM10.0221 37.2339C5.98017 40.461 3.29013 42.6034 1.9589 43.6678L1.91752 46.6847L0.379365 44.3322V42C2.64176 40.2576 5.85601 37.7898 10.0221 34.6034V37.2339ZM11.581 52V20.4881L1.66921 28.4814V31.2407L0 28.9424V26.5966L11.9603 17.4169L23.1275 31.1729V51.9932H11.581V52ZM10.0221 29.6542C5.98017 32.8814 3.29013 35.0237 1.9589 36.0881L1.91752 39.1051L0.379365 36.7525V34.4203C2.64866 32.678 5.86291 30.2169 10.0221 27.0237V29.6542ZM23.7206 29.1254V2.35254L29.349 5.54576V6.41356L31.0941 4.69831V4.29153L23.6862 0.0813559L17.0162 7.70169V20.9153L23.7206 29.1254ZM46.0411 48.983V48.9627C47.3654 50.0203 47.3654 50.0271 46.0411 48.983ZM37.9779 42.5491C42.0198 45.7763 44.7099 47.9186 46.0411 48.983L46.0825 52L47.6137 49.6542V47.322C45.3513 45.5797 42.1371 43.1119 37.9779 39.9186V42.5491ZM46.0411 41.4034V41.3831C47.3654 42.4407 47.3654 42.4475 46.0411 41.4034ZM37.9779 34.9695V32.339C42.1371 35.5322 45.3513 38 47.6137 39.7424V42.0746L46.0825 44.4203L46.0411 41.4034C44.7099 40.339 42.0198 38.1966 37.9779 34.9695ZM46.0411 33.8237C47.3585 34.8678 47.3585 34.8678 46.0411 33.8034V33.8237ZM37.9779 27.3898C42.0198 30.6169 44.7099 32.7593 46.0411 33.8237L46.0825 36.8407L47.6137 34.4949V32.1627C45.3513 30.4203 42.1371 27.9525 37.9779 24.7661V27.3898ZM46.0411 26.2441V26.2237C47.3654 27.2881 47.3654 27.2949 46.0411 26.2441ZM37.9779 19.8102C42.0198 23.0373 44.7099 25.1797 46.0411 26.2441L46.0825 29.261L47.6137 26.9153V24.5831C45.3513 22.8407 42.1371 20.3729 37.9779 17.1797V19.8102ZM36.419 52V3.07119L46.3308 11.0644V13.8237L48 11.5322V9.18644L36.0397 0L24.8656 13.7559V52H36.419ZM37.9779 12.2305C42.0198 15.4576 44.7099 17.6 46.0411 18.6644L46.0825 21.6814L47.6137 19.3288V16.9966C45.3513 15.2542 42.1371 12.7864 37.9779 9.59322V12.2305Z" fill="white"></path></svg>